<svg width="37" height="37" viewBox="0 0 37 37" fill="none" xmlns="http://www.w3.org/2000/svg">
<path d="M18.4755 8.09375C12.8431 8.09375 7.06548 11.3537 2.51708 17.8735C2.38725 18.0616 2.31611 18.284 2.31263 18.5126C2.30916 18.7411 2.37352 18.9656 2.49757 19.1576C5.99233 24.6281 11.6926 28.9062 18.4755 28.9062C25.1846 28.9062 31.002 24.6151 34.5033 19.1323C34.6244 18.9441 34.6889 18.7249 34.6889 18.5011C34.6889 18.2772 34.6244 18.0581 34.5033 17.8698C30.9941 12.4499 25.1341 8.09375 18.4755 8.09375Z" stroke="#36BE26" stroke-width="2.3125" stroke-linecap="round" stroke-linejoin="round"/>
<path d="M18.5 24.2812C21.6929 24.2812 24.2812 21.6929 24.2812 18.5C24.2812 15.3071 21.6929 12.7188 18.5 12.7188C15.3071 12.7188 12.7188 15.3071 12.7188 18.5C12.7188 21.6929 15.3071 24.2812 18.5 24.2812Z" stroke="#36BE26" stroke-width="2.3125" stroke-miterlimit="10"/>
</svg>
